<svg width="64" height="64" viewBox="0 0 64 64" fill="none" xmlns="http://www.w3.org/2000/svg">
    <rect x="0.5" y="0.5" width="63" height="63" rx="31.5" stroke="#006FC7"/>
    <path d="M26.9219 41.0812C27.1279 41.2878 27.1279 41.6297 26.9219 41.8362C26.7159 42.0428 26.375 42.0428 26.1691 41.8362C25.9631 41.6297 25.9631 41.2878 26.1691 41.0812C26.375 40.8747 26.716 40.8747 26.9219 41.0812ZM29.8054 43.8163C29.5995 44.0228 29.5995 44.3647 29.8054 44.5713C30.0114 44.7778 30.3523 44.7778 30.5583 44.5713C30.7642 44.3647 30.7642 44.0228 30.5583 43.8163C30.3523 43.6097 30.0114 43.6097 29.8054 43.8163ZM36.3891 37.6551C36.595 37.4486 36.595 37.1067 36.3891 36.9002C36.1831 36.6936 35.8422 36.6936 35.6362 36.9002C35.4303 37.1067 35.4303 37.4486 35.6362 37.6551C35.8422 37.8617 36.1831 37.8617 36.3891 37.6551ZM30.3378 37.9685C30.1318 38.1751 30.1318 38.517 30.3378 38.7235C30.5438 38.9301 30.8847 38.9301 31.0906 38.7235C31.2966 38.517 31.2966 38.1751 31.0906 37.9685C30.8847 37.762 30.5438 37.762 30.3378 37.9685ZM39.2724 41.8359C36.8931 41.8359 35.1033 42.8473 35.1033 44.1934C35.1033 44.4854 35.3447 44.7276 35.6359 44.7276C35.9271 44.7276 36.1686 44.4854 36.1686 44.1934C36.1686 43.6664 37.3759 42.9042 39.2723 42.9042C41.1686 42.9042 42.376 43.6663 42.376 44.1934C42.376 44.4854 42.6175 44.7276 42.9086 44.7276C43.1998 44.7276 43.4413 44.4854 43.4413 44.1934C43.4413 42.8473 41.6517 41.8359 39.2724 41.8359ZM31.5451 49.2861C24.4854 49.2861 18.7396 43.524 18.7396 36.4442C18.7396 35.5966 18.8249 34.7063 19.0024 33.7875C19.9541 28.7233 23.2991 23.8232 25.2097 21.3445C26.4384 19.7562 27.7665 18.2605 28.9526 17.1351C30.785 15.3972 31.3603 15.3972 31.552 15.3972C31.7438 15.3972 32.3191 15.3972 34.1514 17.1351C35.3375 18.2604 36.6656 19.7562 37.8943 21.3445C39.8048 23.816 43.1431 28.7233 44.1016 33.7875C44.2721 34.7063 44.3644 35.5966 44.3644 36.4442C44.3644 38.0824 44.059 39.6778 43.4624 41.1879C44.6272 41.9785 45.2735 43.0469 45.2735 44.1936C45.2735 45.3545 44.6201 46.4229 43.4411 47.2135C42.326 47.9614 40.8488 48.3745 39.2862 48.3745C38.4907 48.3745 37.7237 48.2676 37.0134 48.0682C35.2876 48.873 33.4556 49.2861 31.5451 49.2861ZM42.8305 42.0569C42.7311 41.9928 42.6317 41.9287 42.5322 41.8717C42.5251 41.8646 42.5109 41.8575 42.5038 41.8575C41.6018 41.3518 40.4726 41.0811 39.2723 41.0811C37.9229 41.0811 36.6516 41.4301 35.714 42.0569C34.8334 42.641 34.3504 43.403 34.3504 44.1937C34.3504 44.9843 34.8334 45.7392 35.714 46.3304C36.1189 46.6011 36.5805 46.8147 37.0777 46.9785C37.1061 46.9857 37.1274 46.9928 37.1487 46.9999C37.8021 47.1993 38.5266 47.3062 39.2723 47.3062C40.6217 47.3062 41.893 46.9572 42.8305 46.3304C43.7112 45.7463 44.1942 44.9842 44.1942 44.1936C44.1942 43.403 43.7112 42.6481 42.8305 42.0569ZM31.5451 48.218C32.9442 48.218 34.3008 47.9759 35.5934 47.4986C35.4301 47.4132 35.2738 47.3134 35.1247 47.2137C33.9386 46.4231 33.2923 45.3476 33.2923 44.1938C33.2923 43.04 33.9457 41.9645 35.1247 41.1739C36.2397 40.426 37.717 40.0129 39.2796 40.0129C40.4444 40.0129 41.5594 40.2408 42.5182 40.6682C43.0367 39.322 43.2924 37.9047 43.2924 36.4446C43.2924 35.8748 43.2497 35.2693 43.1574 34.6568C42.8449 34.785 42.4827 34.8919 42.0281 34.9631C42.0068 34.9631 41.9855 34.9702 41.9642 34.9702C41.9429 34.9702 41.9216 34.9773 41.8932 34.9773C41.879 34.9773 41.8719 34.9773 41.8577 34.9845C41.8364 34.9845 41.8151 34.9916 41.7867 34.9916H41.7796C41.7583 34.9916 41.7298 34.9987 41.7085 34.9987H41.7014C41.6801 34.9987 41.6517 35.0058 41.6304 35.0058H41.6233H41.5949H41.5878H41.5523H41.5452H41.5168H41.5097H41.4742H41.4671H41.4316H41.4244H41.3534H41.3463H41.3179H41.3108H41.2753H41.2682H41.2398H41.2327H41.1972H41.1901H41.1546H41.1475H41.1119C39.798 35.0058 39.1091 34.6782 38.4983 34.3933C37.9159 34.1226 37.4117 33.8805 36.3392 33.8805H36.1191C36.0693 33.8805 36.0267 33.8805 35.9841 33.8876H35.9628C35.146 33.9375 34.6986 34.144 34.1943 34.3791C34.1872 34.3791 34.1872 34.3862 34.1801 34.3862C33.5693 34.6711 32.8804 34.9987 31.5665 34.9987C30.2526 34.9987 29.5637 34.6711 28.9529 34.3862C28.3705 34.1155 27.8662 33.8734 26.7938 33.8734C25.7213 33.8734 25.2171 34.1084 24.6347 34.3862C24.0239 34.6711 23.335 34.9987 22.021 34.9987H21.9855H21.9784H21.9429H21.9358H21.9003H21.8932H21.8648H21.8577H21.8222H21.8151H21.7796H21.7725H21.7369H21.7014H21.6943H21.6588H21.6517H21.6162H21.6091H21.5807H21.5736H21.5381H21.531H21.5026H21.4955C21.4742 34.9987 21.4529 34.9916 21.4244 34.9916H21.4173H21.3818H21.3463H21.3392H21.3108C21.2966 34.9916 21.2895 34.9916 21.2753 34.9845C21.2682 34.9845 21.254 34.9845 21.2469 34.9774H21.2398C21.2185 34.9774 21.1972 34.9702 21.1759 34.9702C21.1546 34.9702 21.1333 34.9631 21.1119 34.9631H21.1048C21.0835 34.9631 21.0622 34.956 21.0409 34.956C21.0338 34.956 21.0196 34.956 21.0125 34.9489C20.6006 34.8777 20.2739 34.7779 19.9827 34.664C19.8975 35.2836 19.8478 35.8819 19.8478 36.4517C19.8051 42.933 25.0749 48.218 31.5451 48.218ZM35.0749 27.7336C35.011 27.6126 34.8902 27.5413 34.7624 27.5413H33.2354V22.3134C33.2354 22.114 33.0792 21.9573 32.8803 21.9573H30.153C29.9542 21.9573 29.7979 22.114 29.7979 22.3134V27.5413H28.3349C28.1999 27.5413 28.0792 27.6126 28.0224 27.7336C27.9584 27.8547 27.9726 27.9972 28.0508 28.104L31.2681 32.6197C31.332 32.7123 31.4457 32.7693 31.5593 32.7693C31.6729 32.7693 31.7795 32.7123 31.8505 32.6197L35.0678 28.104C35.1247 27.9972 35.1388 27.8547 35.0749 27.7336Z" fill="#FF0000"/>
</svg>