<svg id="vector" xmlns="http://www.w3.org/2000/svg" width="64" height="64" viewBox="0 0 64 64"><path fill="#FFFFFF" d="M25.09,45.5694L18.1188,49.4991C17.7097,49.7296 17.3421,50.013 17,50.3218C21.0644,53.8634 26.3111,56 32.0436,56C37.7338,56 42.947,53.8953 47,50.402C46.6262,50.0758 46.2206,49.7824 45.771,49.551L38.306,45.6942C37.3415,45.1958 36.7323,44.1772 36.7323,43.0628V40.0361C36.9421,39.7892 37.1819,39.4721 37.4385,39.0976C38.4559,37.6125 39.2256,35.9788 39.759,34.265C40.7165,33.9597 41.4218,33.0459 41.4218,31.9598V28.7289C41.4218,28.0182 41.1158,27.3832 40.6406,26.9386V22.2681C40.6406,22.2681 41.569,15 32.0445,15C22.52,15 23.4484,22.2681 23.4484,22.2681V26.9386C22.9723,27.3832 22.6673,28.0182 22.6673,28.7289V31.9598C22.6673,32.8108 23.1002,33.5597 23.7482,33.9925C24.5293,37.5068 26.5747,40.0361 26.5747,40.0361V42.9881C26.5739,44.0633 26.0043,45.0537 25.09,45.5694Z" id="path_0"/><path fill="#66BBFF" d="M32.41,8.0014C19.1563,7.7749 8.2276,18.3359 8.0012,31.5896C7.8726,39.1046 11.222,45.8587 16.555,50.3502C16.9037,50.0459 17.2778,49.7669 17.6935,49.5405L24.8552,45.634C25.7945,45.1214 26.3796,44.1369 26.3796,43.0663V40.1317C26.3796,40.1317 24.2773,37.6173 23.4758,34.1239C22.8109,33.6936 22.3653,32.95 22.3653,32.1032V28.8914C22.3653,28.1849 22.6796,27.5536 23.1678,27.1116V22.4688C23.1678,22.4688 22.2141,15.2437 31.9988,15.2437C41.7835,15.2437 40.8298,22.4688 40.8298,22.4688V27.1116C41.3189,27.5536 41.6323,28.1849 41.6323,28.8914V32.1032C41.6323,33.1828 40.9077,34.0913 39.924,34.3947C39.3761,36.0984 38.5853,37.7224 37.5401,39.1987C37.2766,39.571 37.0302,39.8862 36.8146,40.1317V43.1405C36.8146,44.2483 37.4405,45.2618 38.4314,45.7563L46.1003,49.5903C46.5604,49.8204 46.9761,50.1111 47.3593,50.4345C52.5311,46.1213 55.8723,39.6725 55.9964,32.4102C56.2247,19.1565 45.6646,8.2278 32.41,8.0014Z" id="path_1"/></svg>